<?xml version="1.0" standalone="no"?>
<!DOCTYPE svg PUBLIC "-//W3C//DTD SVG 20010904//EN"
 "http://www.w3.org/TR/2001/REC-SVG-20010904/DTD/svg10.dtd">
<svg version="1.0" xmlns="http://www.w3.org/2000/svg"
 width="512.000000pt" height="512.000000pt" viewBox="0 0 512.000000 512.000000"
 preserveAspectRatio="xMidYMid meet">
<metadata>
Created by potrace 1.11, written by Peter Selinger 2001-2013
</metadata>
<g transform="translate(0.000000,512.000000) scale(0.100000,-0.100000)"
fill="#000000" stroke="none">
<path d="M1495 4624 c-82 -57 -160 -109 -172 -114 -13 -5 -23 -14 -23 -20 0
-5 -4 -10 -9 -10 -8 0 -191 -118 -201 -130 -3 -3 -23 -17 -45 -30 -22 -13 -42
-27 -45 -30 -3 -3 -23 -17 -45 -30 -22 -13 -51 -32 -65 -42 -75 -56 -240 -166
-240 -160 0 4 -4 2 -8 -4 -9 -13 -101 -74 -112 -74 -4 0 -10 -4 -12 -8 -1 -5
-50 -40 -108 -78 -58 -38 -107 -71 -110 -74 -15 -15 -71 -50 -80 -50 -5 0 -10
-4 -10 -10 0 -5 -6 -10 -14 -10 -8 0 -16 -4 -18 -8 -1 -4 -34 -28 -71 -52 -58
-38 -65 -46 -52 -56 14 -11 197 -95 280 -129 17 -7 58 -24 91 -39 34 -14 65
-26 69 -26 4 0 21 -6 38 -14 89 -40 429 -149 565 -181 9 -3 35 -9 57 -15 22
-6 51 -12 65 -15 14 -2 55 -11 92 -20 37 -8 71 -15 75 -14 4 1 10 0 13 -1 8
-3 41 -9 75 -15 17 -2 39 -6 50 -8 11 -3 47 -8 80 -12 32 -4 68 -9 78 -11 10
-2 45 -4 78 -6 32 -2 59 -5 59 -8 0 -6 134 -10 365 -9 208 0 288 4 304 13 6 4
11 2 11 -4 0 -6 5 -8 12 -4 13 8 20 9 116 18 71 7 129 15 162 23 14 3 39 7 55
9 17 1 75 12 130 24 55 12 111 24 125 26 14 3 33 7 42 10 9 3 25 7 35 9 49 11
280 78 296 87 10 5 28 11 40 14 12 2 23 8 25 14 2 6 7 8 12 5 4 -3 37 8 73 24
36 16 68 27 71 24 3 -4 6 -1 6 5 0 7 5 12 10 12 24 0 393 188 410 209 3 3 11
7 19 9 8 2 27 12 42 23 15 10 30 19 33 19 4 0 19 8 34 19 15 10 79 53 142 94
224 148 360 256 494 392 76 77 176 201 176 218 0 3 -39 -14 -87 -37 -49 -24
-104 -50 -123 -58 -19 -9 -61 -28 -92 -42 -31 -14 -60 -26 -65 -26 -4 0 -20
-6 -35 -14 -14 -8 -43 -19 -65 -26 -21 -7 -44 -17 -50 -23 -7 -5 -13 -7 -13
-3 0 3 -17 -1 -37 -9 -21 -9 -40 -16 -43 -17 -3 0 -16 -4 -29 -9 -13 -5 -31
-11 -40 -13 -9 -2 -23 -6 -31 -9 -18 -8 -164 -45 -200 -51 -14 -3 -25 -5 -25
-6 0 -1 -7 -3 -15 -5 -55 -12 -79 -16 -110 -21 -19 -2 -42 -7 -50 -9 -22 -6
-119 -18 -162 -19 -21 -1 -38 -3 -38 -6 0 -5 -68 -8 -225 -9 -150 0 -265 3
-265 9 0 3 -22 6 -49 8 -28 2 -60 5 -73 7 -13 3 -43 8 -68 11 -25 3 -49 8 -53
11 -5 3 -18 6 -30 7 -37 5 -212 49 -217 55 -3 3 -14 7 -25 9 -49 8 -287 101
-297 116 -4 6 -8 8 -8 3 0 -7 -219 100 -230 112 -3 3 -25 17 -50 30 -45 24
-295 187 -316 206 -33 30 -65 55 -69 55 -5 0 -35 25 -89 73 -17 15 -33 26 -36
26 -3 -1 -72 -48 -155 -105z m165 -82 c0 -5 43 -40 96 -78 53 -38 102 -75 109
-81 8 -7 17 -13 21 -13 4 0 21 -11 38 -23 90 -69 385 -228 511 -277 33 -13 65
-26 70 -30 6 -3 30 -13 55 -20 25 -7 50 -17 55 -21 6 -4 22 -10 35 -13 14 -3
48 -12 75 -20 137 -41 245 -66 340 -80 17 -2 30 -5 30 -6 0 -1 16 -3 35 -5 19
-2 64 -7 100 -12 36 -4 166 -8 290 -8 218 1 318 7 455 28 17 3 50 8 75 12 25
3 53 8 63 11 10 3 30 7 45 10 25 3 103 23 162 40 36 10 -27 -39 -165 -131
-140 -92 -189 -120 -355 -201 -74 -36 -143 -69 -152 -75 -10 -5 -25 -9 -33 -9
-8 0 -15 -4 -15 -8 0 -5 -7 -9 -15 -10 -8 -1 -22 -3 -30 -4 -8 -1 -15 -5 -15
-10 0 -4 -7 -8 -15 -8 -9 0 -29 -7 -45 -15 -16 -8 -37 -17 -47 -18 -10 -2 -30
-9 -44 -15 -15 -6 -43 -14 -63 -17 -20 -4 -36 -12 -36 -17 0 -6 -7 -8 -15 -5
-8 4 -17 2 -20 -3 -3 -5 -13 -9 -23 -9 -9 0 -42 -7 -72 -16 -50 -15 -75 -21
-120 -28 -9 -2 -20 -6 -27 -10 -6 -4 -18 -4 -27 -1 -9 4 -16 1 -16 -6 0 -6 -6
-10 -12 -7 -7 2 -26 0 -42 -4 -16 -5 -48 -11 -70 -14 -23 -4 -54 -9 -71 -11
-47 -9 -75 -12 -145 -19 -36 -4 -78 -9 -95 -11 -120 -17 -437 -22 -635 -9
-131 7 -151 9 -240 20 -30 4 -71 9 -90 10 -19 2 -35 4 -35 5 0 2 -31 8 -75 14
-85 12 -118 18 -155 28 -22 6 -49 12 -60 14 -20 3 -79 17 -125 29 -14 3 -32 8
-40 10 -8 2 -16 4 -17 4 -2 1 -5 1 -8 1 -3 1 -23 7 -45 15 -22 8 -41 14 -43
13 -2 -1 -72 20 -97 29 -8 3 -19 7 -25 9 -45 12 -226 81 -310 119 -162 72
-187 86 -175 100 7 8 18 15 25 15 8 0 15 4 17 8 2 5 37 31 78 58 41 27 77 51
80 54 3 3 59 41 125 84 66 44 122 84 123 88 2 4 8 8 12 8 12 0 104 62 108 72
2 4 8 8 12 8 5 0 35 18 67 40 67 46 64 45 163 110 41 27 80 53 85 57 6 5 91
62 190 128 99 66 182 123 183 128 5 10 32 9 32 -1z"/>
<path d="M3637 2904 c-1 -1 -90 -5 -197 -9 -205 -7 -257 -10 -355 -20 -33 -3
-82 -8 -110 -10 -104 -10 -134 -13 -161 -19 -29 -6 -115 -16 -166 -19 -16 -1
-28 -4 -28 -7 0 -3 -17 -6 -37 -8 -20 -1 -46 -4 -57 -6 -12 -2 -37 -7 -56 -11
-19 -3 -48 -8 -65 -10 -16 -2 -30 -5 -30 -6 0 -1 -9 -3 -20 -4 -11 -2 -33 -6
-50 -10 -16 -3 -43 -8 -60 -10 -16 -1 -31 -4 -32 -5 -6 -5 -106 -24 -115 -22
-5 1 -8 -2 -8 -6 0 -4 -8 -8 -17 -8 -25 -1 -107 -18 -143 -29 -10 -3 -28 -8
-39 -10 -12 -3 -31 -8 -43 -11 -13 -3 -30 -7 -38 -9 -8 -2 -15 -4 -15 -5 0 -2
-12 -5 -50 -13 -49 -12 -303 -88 -345 -104 -8 -3 -19 -7 -25 -8 -29 -7 -282
-103 -357 -135 -48 -21 -90 -35 -93 -32 -3 3 -5 0 -5 -6 0 -7 -7 -12 -14 -12
-23 0 -349 -168 -454 -234 -120 -74 -272 -188 -342 -254 l-55 -53 40 7 c22 4
42 10 45 13 3 3 14 7 25 7 11 1 31 4 45 7 14 3 34 8 45 10 17 4 137 27 220 43
11 2 36 5 55 8 19 2 55 7 80 11 25 3 59 8 75 10 17 2 30 4 30 5 0 2 139 12
183 14 23 0 42 3 42 7 0 7 585 4 670 -5 36 -3 85 -8 110 -11 25 -3 65 -8 89
-10 24 -2 51 -7 60 -9 9 -3 36 -8 61 -11 25 -2 56 -7 70 -11 14 -3 39 -8 55
-10 26 -5 111 -23 180 -39 65 -15 366 -105 380 -113 6 -4 17 -7 25 -9 8 -1 30
-9 50 -17 19 -8 65 -26 101 -40 37 -14 87 -35 113 -45 25 -11 47 -20 49 -20 1
0 69 -33 152 -74 l150 -75 280 186 c154 103 282 189 285 192 3 3 57 39 120 80
63 41 117 78 118 83 2 4 8 7 13 7 6 0 34 18 64 40 30 22 55 37 55 33 0 -4 4
-3 8 3 4 6 54 42 112 79 58 38 111 75 118 82 7 7 20 13 28 13 8 0 14 4 14 8 0
4 15 16 33 27 17 10 37 23 42 27 20 17 171 118 185 125 8 4 38 23 65 43 28 20
55 39 60 41 19 8 190 124 193 132 2 4 10 7 18 7 34 0 8 19 -63 47 -81 32 -153
57 -165 58 -3 0 -9 3 -13 7 -4 4 -13 4 -21 1 -8 -3 -14 1 -14 8 0 7 -3 10 -6
6 -3 -3 -26 0 -50 8 -24 7 -44 11 -44 9 0 -3 -8 0 -17 5 -19 10 -67 20 -123
26 -19 3 -53 9 -75 14 -54 13 -147 25 -260 36 -22 1 -40 4 -40 5 0 5 -533 28
-538 24z"/>
<path d="M5029 2206 c-2 -2 -20 -7 -39 -10 -19 -3 -48 -8 -65 -12 -16 -3 -34
-7 -40 -8 -5 -1 -16 -5 -22 -9 -7 -5 -13 -6 -13 -2 0 6 -96 -41 -114 -56 -6
-5 -45 -31 -86 -58 -41 -27 -137 -90 -213 -140 -76 -50 -140 -91 -143 -91 -3
0 -14 -8 -25 -18 -10 -11 -32 -25 -47 -33 -15 -8 -29 -16 -32 -19 -11 -12
-133 -90 -140 -90 -5 0 -10 -3 -12 -7 -2 -7 -297 -206 -350 -238 -9 -5 -90
-59 -180 -120 -90 -60 -166 -108 -170 -107 -5 1 -8 -2 -8 -7 0 -10 -65 -51
-80 -51 -5 0 -32 13 -60 30 -27 16 -50 27 -50 25 0 -2 -21 8 -47 23 -63 37
-239 122 -253 122 -5 0 -10 5 -10 12 0 6 -3 8 -6 5 -4 -4 -19 0 -33 7 -75 39
-379 157 -441 171 -8 2 -16 4 -17 5 -2 2 -6 3 -10 4 -5 2 -28 8 -53 16 -25 7
-48 13 -52 12 -5 -1 -8 2 -8 7 0 5 -8 8 -17 6 -10 -1 -25 1 -34 6 -9 4 -27 10
-40 13 -13 3 -42 10 -64 15 -22 6 -56 13 -75 16 -19 3 -48 10 -65 15 -16 4
-52 12 -80 16 -27 4 -57 9 -65 10 -27 5 -104 16 -140 20 -19 2 -53 6 -75 9
-131 18 -685 22 -685 5 0 -3 -34 -6 -77 -8 -42 -1 -82 -7 -89 -13 -8 -6 -14
-6 -18 0 -4 6 -31 3 -71 -8 -35 -10 -67 -16 -70 -13 -2 3 -11 -1 -20 -8 -8 -7
-15 -10 -15 -7 0 21 -197 -85 -273 -146 -17 -14 -24 -33 -9 -23 5 3 24 8 43
11 45 9 64 13 64 15 0 2 54 11 73 12 6 1 12 4 12 7 0 3 12 6 28 7 25 0 90 9
139 18 12 3 50 7 84 11 34 3 74 8 89 10 176 22 548 22 720 0 19 -3 55 -7 80
-10 25 -3 63 -8 85 -12 22 -3 52 -6 68 -7 15 -1 27 -4 27 -7 0 -4 8 -6 18 -6
30 2 376 -80 422 -100 18 -7 11 -5 85 -27 33 -10 74 -24 90 -31 17 -7 55 -22
85 -33 30 -11 78 -30 105 -43 28 -12 55 -23 61 -24 30 -7 355 -173 469 -241
72 -42 142 -83 157 -91 26 -14 31 -12 135 59 59 40 110 76 111 80 2 4 10 8 17
8 7 0 24 9 37 20 12 11 136 94 273 186 138 91 258 173 268 181 9 9 17 12 17 7
0 -5 4 -4 8 2 4 5 81 59 172 120 91 60 168 114 172 119 5 7 8 7 8 0 0 -6 3 -6
8 1 4 5 75 55 157 110 83 54 152 101 155 104 3 3 59 40 125 84 66 43 134 89
151 102 l32 23 -16 36 c-15 33 -23 40 -33 31z"/>
<path d="M5000 1668 c-19 -5 -51 -11 -70 -14 -119 -17 -115 -15 -538 -296 -90
-59 -167 -108 -172 -108 -5 0 -10 -4 -12 -8 -1 -4 -50 -39 -108 -77 -58 -38
-106 -73 -108 -77 -2 -4 -7 -8 -12 -8 -10 0 -164 -103 -168 -112 -2 -5 -8 -8
-13 -8 -11 0 -72 -42 -77 -52 -2 -5 -8 -8 -13 -8 -10 0 -103 -62 -107 -72 -2
-5 -7 -8 -12 -8 -5 0 -61 -36 -125 -80 -64 -44 -120 -80 -125 -80 -5 0 -10 -4
-12 -8 -1 -4 -19 -18 -39 -30 l-36 -22 -45 29 c-26 16 -49 27 -52 24 -3 -4 -6
-2 -6 4 0 6 -13 16 -30 23 -16 7 -30 17 -30 23 0 6 -3 8 -6 4 -3 -3 -24 5 -45
19 -21 13 -43 24 -49 24 -5 0 -10 5 -10 10 0 6 -9 10 -19 10 -11 0 -21 4 -23
9 -5 12 -449 231 -483 237 -5 1 -28 10 -50 20 -22 10 -42 18 -45 19 -3 1 -12
5 -20 8 -31 14 -306 108 -325 112 -11 2 -74 17 -139 34 -66 17 -133 34 -150
36 -17 3 -56 10 -86 15 -135 23 -174 27 -310 35 -175 11 -234 12 -252 3 -11
-5 -18 -5 -18 1 0 5 -10 8 -23 5 -12 -3 -49 -7 -82 -8 -73 -4 -184 -15 -205
-21 -8 -3 -37 -7 -65 -10 -27 -3 -59 -7 -70 -9 -11 -3 -23 -5 -27 -5 -5 -1 -8
-5 -8 -10 0 -5 15 -7 33 -4 17 2 38 4 45 3 32 -1 80 0 107 1 17 1 32 0 35 -1
3 -1 37 -3 75 -5 77 -3 188 -12 250 -20 69 -9 129 -16 164 -20 51 -6 104 -15
121 -20 17 -5 60 -13 110 -21 19 -3 42 -7 50 -10 8 -3 26 -8 40 -11 43 -9 55
-11 55 -13 0 -1 8 -3 19 -5 60 -11 123 -29 134 -38 6 -5 12 -7 12 -4 0 4 18 0
40 -8 22 -8 43 -14 45 -14 12 0 90 -25 95 -31 3 -3 12 -7 20 -9 39 -9 34 -7
127 -43 29 -11 53 -19 55 -18 2 2 22 -7 45 -19 23 -11 49 -21 58 -21 8 0 15
-4 15 -10 0 -5 6 -10 14 -10 25 0 375 -166 388 -185 5 -7 8 -7 8 0 0 6 3 6 8
0 4 -6 21 -17 37 -25 25 -13 88 -49 183 -105 53 -31 108 -66 195 -123 88 -57
100 -62 115 -49 9 8 107 74 217 148 110 73 202 137 203 141 2 4 7 8 12 8 8 0
669 438 703 465 9 8 22 15 27 15 6 0 10 5 10 10 0 6 6 10 13 10 7 0 22 8 33
18 11 11 24 21 30 23 12 5 337 222 344 230 3 3 31 21 63 40 31 18 57 37 57 41
0 5 5 8 11 8 6 0 23 10 38 23 23 20 25 25 16 54 -14 41 -14 41 -55 31z"/>
</g>
</svg>
