<?xml version="1.0" encoding="utf-8"?>
<!-- Generator: Adobe Illustrator 21.0.0, SVG Export Plug-In . SVG Version: 6.00 Build 0)  -->
<svg version="1.1" id="concierge" xmlns="http://www.w3.org/2000/svg" xmlns:xlink="http://www.w3.org/1999/xlink" x="0px" y="0px"
	 viewBox="0 0 512 512" style="enable-background:new 0 0 512 512;" xml:space="preserve">
<style type="text/css">
	.st0{fill:#233844;}
	.st1{fill:#FFFFFF;}
	.st2{fill:#EEEEEE;}
	.st3{fill:#EE684D;}
</style>
<g>
	<path class="st0" d="M388.6,224.8v85.7L366.2,294l-69.8,214.8C418.6,489.4,512,383.6,512,256c0-70.6-28.6-134.5-74.8-180.8
		L388.6,224.8z"/>
	<path class="st0" d="M122.6,310.5v-88L74.8,75.2C28.6,121.5,0,185.4,0,256c0,127.6,93.4,233.4,215.6,252.8l-69.9-215.3L122.6,310.5
		z"/>
	<path class="st1" d="M122.6,78.4l133,96.6l0.4-0.3V0C185.2,0,121.1,28.7,74.8,75.2l47.8,147.3V78.4z"/>
	<polygon class="st1" points="152.2,253 231.9,194.4 152.2,135.9 	"/>
	<path class="st1" d="M242.3,445c0-7.6,6.1-13.8,13.7-14v-52.3c-7.6-0.2-13.7-6.4-13.7-14s6.1-13.8,13.7-14v-52.3
		c-7.6-0.2-13.7-6.4-13.7-14c0-7.6,6.1-13.8,13.7-14v-57.5l-0.4-0.3l-110,80.9l69.9,215.3c13.2,2.1,26.7,3.2,40.4,3.2v-53
		C248.4,458.8,242.3,452.6,242.3,445z"/>
	<path class="st2" d="M388.6,78.4v146.4l48.6-149.6C390.9,28.7,326.8,0,256,0v174.7L388.6,78.4z"/>
	<polygon class="st2" points="359.1,253 359.1,135.9 279.3,194.4 	"/>
	<path class="st2" d="M256,212.9v57.5c0.1,0,0.2,0,0.3,0c7.7,0,14,6.3,14,14c0,7.7-6.3,14-14,14c-0.1,0-0.2,0-0.3,0v52.3
		c0.1,0,0.2,0,0.3,0c7.7,0,14,6.3,14,14s-6.3,14-14,14c-0.1,0-0.2,0-0.3,0V431c0.1,0,0.2,0,0.3,0c7.7,0,14,6.3,14,14
		c0,7.7-6.3,14-14,14c-0.1,0-0.2,0-0.3,0v53c13.8,0,27.2-1.1,40.4-3.2L366.2,294L256,212.9z"/>
	<path class="st3" d="M256,174.7l-0.4,0.3l-133-96.6v144.2v88l23.1-17l110-80.9l0.4,0.3l110.2,81l22.5,16.5v-85.7V78.4L256,174.7z
		 M152.2,253v-117l79.7,58.5L152.2,253z M359.1,253l-79.7-58.5l79.7-58.5V253z"/>
	<path class="st0" d="M242.3,284.5c0,7.6,6.1,13.8,13.7,14c0.1,0,0.2,0,0.3,0c7.7,0,14-6.3,14-14c0-7.7-6.3-14-14-14
		c-0.1,0-0.2,0-0.3,0C248.4,270.7,242.3,276.8,242.3,284.5z"/>
	<path class="st0" d="M242.3,364.7c0,7.6,6.1,13.8,13.7,14c0.1,0,0.2,0,0.3,0c7.7,0,14-6.3,14-14s-6.3-14-14-14c-0.1,0-0.2,0-0.3,0
		C248.4,350.9,242.3,357.1,242.3,364.7z"/>
	<path class="st0" d="M242.3,445c0,7.6,6.1,13.8,13.7,14c0.1,0,0.2,0,0.3,0c7.7,0,14-6.3,14-14c0-7.7-6.3-14-14-14
		c-0.1,0-0.2,0-0.3,0C248.4,431.2,242.3,437.4,242.3,445z"/>
</g>
</svg>
