<?xml version="1.0" encoding="utf-8"?>
<!-- Generator: Adobe Illustrator 19.0.0, SVG Export Plug-In . SVG Version: 6.00 Build 0)  -->
<svg version="1.1" id="icon_1_" xmlns="http://www.w3.org/2000/svg" xmlns:xlink="http://www.w3.org/1999/xlink" x="0px" y="0px"
	 viewBox="0 0 313.9 187.2" enable-background="new 0 0 313.9 187.2" xml:space="preserve">
<rect id="bounding" fill="none" width="313.9" height="187.2"/>
<g id="icon">
	<g id="XMLID_21_">
		<path id="XMLID_4_" fill="#FFFFFF" d="M304.3,70.2c-2.8,0-7,1.3-9.4,2.8L134.5,177.4c-2.3,1.5-6.3,1.8-8.9,0.6L20.5,127.1
			c-2.5-1.2-6.9-2.2-9.7-2.2H3.6c-2.8,0-3,1-0.5,2.2l122.6,59.3c2.5,1.2,6.5,1,8.9-0.5L312.3,73c2.4-1.5,2-2.7-0.8-2.7H304.3z"/>
		<path id="XMLID_3_" fill="#FFFFFF" d="M303,53.2c-2.8,0-7,1.3-9.4,2.8L133.2,160.4c-2.3,1.5-6.3,1.8-8.9,0.6L19.3,110.1
			c-2.5-1.2-6.9-2.2-9.7-2.2H2.3c-2.8,0-3,1-0.5,2.2l122.6,59.3c2.5,1.2,6.5,1,8.9-0.5L311,55.9c2.4-1.5,2-2.7-0.8-2.7H303z"/>
		<path id="XMLID_5_" fill="#FFFFFF" d="M303,36.3c-2.8,0-7,1.3-9.4,2.8L133.2,143.5c-2.3,1.5-6.3,1.8-8.9,0.6L19.3,93.1
			c-2.5-1.2-6.9-2.2-9.7-2.2H2.3c-2.8,0-3,1-0.5,2.2L124,152.3c2.5,1.2,6.5,1,8.9-0.5L311,39c2.4-1.5,2-2.7-0.8-2.7H303z"/>
	</g>
	<path id="XMLID_2_" fill="#FFFFFF" d="M195.4,98.9L195.4,98.9c1.6-0.1-20.5,0.4-33-6.6c-26.3-14.8-38.9-30.2-39.5-29.9
		c0,0-10.7,17.1-26.9,26.7c-18.5,10.9-43,15.3-41.9,15.2l0,0c1.9,0.6,37.8,4.9,72.4,3.6C160.7,106.6,193.6,99.8,195.4,98.9z"/>
</g>
</svg>
