<?xml version="1.0" encoding="utf-8"?>
<!-- Generator: Adobe Illustrator 19.0.0, SVG Export Plug-In . SVG Version: 6.00 Build 0)  -->
<svg version="1.1" id="wide-logo" xmlns="http://www.w3.org/2000/svg" xmlns:xlink="http://www.w3.org/1999/xlink" x="0px" y="0px"
	 viewBox="0 0 315.2 54.3" enable-background="new 0 0 315.2 54.3" xml:space="preserve">
<g id="text">
	<g>
		<defs>
			<rect id="XMLID_3_" x="97.6" y="4.5" width="217.7" height="45.3"/>
		</defs>
		<clipPath id="XMLID_2_">
			<use xlink:href="#XMLID_3_"  overflow="visible"/>
		</clipPath>
		<g clip-path="url(#XMLID_2_)">
			<defs>
				<rect id="XMLID_4_" x="97.6" y="4.5" width="217.7" height="45.3"/>
			</defs>
			<clipPath id="XMLID_25_">
				<use xlink:href="#XMLID_4_"  overflow="visible"/>
			</clipPath>
			<path id="XMLID_18_" clip-path="url(#XMLID_25_)" fill="#047BB7" d="M229.1,38.1v-6.3h3.8v3.3c1.4,0.4,3.4,0.7,5,0.7
				c3.1,0,5-1.1,5-3c0-5.2-13.5-2.5-13.5-11.2c0-4.1,3-6.9,9-6.9c3,0,6.1,0.7,7.9,1.3v6.2h-3.8v-3.5c-1.2-0.3-2.9-0.4-4.1-0.4
				c-3.2,0-4.6,1.3-4.6,3c0,5.3,13.5,2.4,13.5,11.4c0,3.8-2.6,6.9-9.4,6.9C234.9,39.5,231.3,38.8,229.1,38.1"/>
			<path id="XMLID_17_" clip-path="url(#XMLID_25_)" fill="#047BB7" d="M254.2,32.5V19.2H250v-3.8h4.1v-6h4.7v6h7v3.8h-7v13.1
				c0,2.7,1.3,3.5,3.7,3.5c1.4,0,2.7-0.3,3.6-0.6v3.5c-1.5,0.4-3,0.8-5,0.8C256.9,39.5,254.2,37.6,254.2,32.5"/>
			<path clip-path="url(#XMLID_25_)" fill="#047BB7" d="M268.4,32.4c0-5.8,5.4-7.2,10.7-7.2h4.6v-1.8c0-3.6-1.4-4.9-5.5-4.9
				c-2.9,0-6,0.7-8,1.4v-3.6c2.3-0.8,5.6-1.4,8.9-1.4c6.1,0,9.2,2.4,9.2,8.4v12h3.9v3.7h-8.4V36c-1.7,1.6-4.4,3.5-8,3.5
				C271.8,39.5,268.4,37,268.4,32.4 M283.8,32.9v-4.7h-4.4c-3.4,0-6.3,0.8-6.3,4c0,2.1,1.3,3.7,4.1,3.7
				C280,36,282.2,34.4,283.8,32.9"/>
			<path id="XMLID_14_" clip-path="url(#XMLID_25_)" fill="#047BB7" d="M294.7,27.2c0-7.9,4.9-12.4,12.2-12.4c3.2,0,6.3,0.9,8.3,1.6
				v7.3h-4V19c-1-0.3-2.5-0.6-3.8-0.6c-5.3,0-7.8,3.5-7.8,8.6c0,5.3,2.7,8.8,8,8.8c2.8,0,5.5-1,7.6-2.2v3.8
				c-2.2,1.3-5.1,2.1-8.3,2.1C299.3,39.5,294.7,35,294.7,27.2"/>
			<path clip-path="url(#XMLID_25_)" fill="#233844" d="M97.6,46h4V19.1h-4v-3.7h8.4v3c1.8-1.9,4.2-3.6,7.8-3.6
				c6.4,0,10.3,5.2,10.3,12.2c0,7.2-4.1,12.4-10.9,12.4c-3,0-5.2-1-6.9-2.5V46h4.7v3.7H97.6V46z M106.2,21.4v12.1
				c1.4,1.3,3.2,2.3,5.8,2.3c4.8,0,7.2-3.6,7.2-8.7c0-4.6-2-8.7-6.7-8.7C109.7,18.5,107.8,19.8,106.2,21.4"/>
			<path clip-path="url(#XMLID_25_)" fill="#233844" d="M127.3,32.4c0-5.8,5.4-7.2,10.7-7.2h4.6v-1.8c0-3.6-1.4-4.9-5.5-4.9
				c-2.9,0-6,0.7-8,1.4v-3.6c2.3-0.8,5.6-1.4,8.9-1.4c6.1,0,9.2,2.4,9.2,8.4v12h3.9v3.7h-8.4V36c-1.7,1.6-4.4,3.5-8,3.5
				C130.6,39.5,127.3,37,127.3,32.4 M142.6,32.9v-4.7h-4.4c-3.4,0-6.3,0.8-6.3,4c0,2.1,1.3,3.7,4.1,3.7
				C138.8,36,141,34.4,142.6,32.9"/>
			<path clip-path="url(#XMLID_25_)" fill="#233844" d="M152.7,46h4V19.1h-4v-3.7h8.4v3c1.8-1.9,4.2-3.6,7.8-3.6
				c6.4,0,10.3,5.2,10.3,12.2c0,7.2-4.1,12.4-10.9,12.4c-3,0-5.2-1-6.9-2.5V46h4.7v3.7h-13.4V46z M161.4,21.4v12.1
				c1.4,1.3,3.2,2.3,5.8,2.3c4.8,0,7.2-3.6,7.2-8.7c0-4.6-2-8.7-6.7-8.7C164.9,18.5,162.9,19.8,161.4,21.4"/>
			<path clip-path="url(#XMLID_25_)" fill="#233844" d="M182.9,27.2c0-7.3,4.2-12.4,11.2-12.4c7.3,0,10.4,5.7,10.4,11.6
				c0,0.7,0,1.4-0.1,2.1h-16.8c0.4,4.6,3.1,7.3,7.9,7.3c3,0,5.6-1.1,7.7-2.2v3.7c-2,1.2-4.7,2.2-8.4,2.2
				C187,39.5,182.9,34.4,182.9,27.2 M187.6,25.1h12.5c-0.2-3.3-1.7-6.8-6-6.8C190.1,18.3,188,21.3,187.6,25.1"/>
			<path id="XMLID_5_" clip-path="url(#XMLID_25_)" fill="#233844" d="M207.9,35.1h3.9v-16h-3.9v-3.7h8.5V20
				c1.5-2.5,4.1-5.2,8.3-5.2h0.5v4.7h-0.8c-3.7,0-6.3,1.4-7.9,2.9v12.8h4.4v3.7h-13.1V35.1z"/>
		</g>
	</g>
</g>
<g id="icon">
	<g>
		<defs>
			<rect id="XMLID_19_" x="0" y="0" width="91" height="54.3"/>
		</defs>
		<clipPath id="XMLID_26_">
			<use xlink:href="#XMLID_19_"  overflow="visible"/>
		</clipPath>
		<g clip-path="url(#XMLID_26_)">
			<defs>
				<rect id="XMLID_20_" x="0" y="0" width="91" height="54.3"/>
			</defs>
			<clipPath id="XMLID_27_">
				<use xlink:href="#XMLID_20_"  overflow="visible"/>
			</clipPath>
			<path id="XMLID_24_" clip-path="url(#XMLID_27_)" fill="#047BB7" d="M88.2,20.4c-0.8,0-2,0.4-2.7,0.8L39,51.4
				c-0.7,0.4-1.8,0.5-2.6,0.2L6,36.8c-0.7-0.4-2-0.6-2.8-0.6H1c-0.8,0-0.9,0.3-0.1,0.6L36.4,54c0.7,0.4,1.9,0.3,2.6-0.1l51.5-32.7
				c0.7-0.4,0.6-0.8-0.2-0.8H88.2z"/>
			<path id="XMLID_23_" clip-path="url(#XMLID_27_)" fill="#233844" d="M87.8,15.4c-0.8,0-2,0.4-2.7,0.8L38.6,46.5
				c-0.7,0.4-1.8,0.5-2.6,0.2L5.6,31.9c-0.7-0.4-2-0.6-2.8-0.6H0.7c-0.8,0-0.9,0.3-0.1,0.6l35.5,17.2c0.7,0.4,1.9,0.3,2.6-0.1
				l51.5-32.7c0.7-0.4,0.6-0.8-0.2-0.8H87.8z"/>
			<path id="XMLID_22_" clip-path="url(#XMLID_27_)" fill="#047BB7" d="M87.8,10.5c-0.8,0-2,0.4-2.7,0.8L38.6,41.6
				c-0.7,0.4-1.8,0.5-2.6,0.2L5.6,27c-0.7-0.4-2-0.6-2.8-0.6H0.7c-0.8,0-0.9,0.3-0.1,0.6l35.4,17.1c0.7,0.4,1.9,0.3,2.6-0.1
				l51.6-32.7c0.7-0.4,0.6-0.8-0.2-0.8H87.8z"/>
			<path id="XMLID_21_" clip-path="url(#XMLID_27_)" fill="#047BB7" d="M56.6,28.7L56.6,28.7c0.5,0-6,0.1-9.6-1.9
				c-7.6-4.3-11.3-8.7-11.4-8.7c0,0-3.1,5-7.8,7.7c-5.3,3.2-12.5,4.4-12.1,4.4c0.5,0.2,10.9,1.4,21,1C46.6,30.9,56.1,28.9,56.6,28.7
				"/>
		</g>
	</g>
</g>
</svg>
