<?xml version="1.0" encoding="utf-8"?>
<!-- Generator: Adobe Illustrator 19.0.0, SVG Export Plug-In . SVG Version: 6.00 Build 0)  -->
<svg version="1.1" id="text_1_" xmlns="http://www.w3.org/2000/svg" xmlns:xlink="http://www.w3.org/1999/xlink" x="0px" y="0px"
	 viewBox="0 0 360.9 75" enable-background="new 0 0 360.9 75" xml:space="preserve">
<g id="bounding_box">
	<rect id="XMLID_19_" fill="none" width="360.9" height="75"/>
</g>
<g id="text">
	<g id="XMLID_20_">
		<path id="XMLID_37_" fill="#047BB7" d="M218.1,55.8V45.4h6.3v5.5c2.3,0.6,5.6,1.2,8.4,1.2c5.1,0,8.3-1.8,8.3-5
			c0-8.5-22.4-4.2-22.4-18.6c0-6.8,5-11.5,15-11.5c4.9,0,10.1,1.1,13.1,2.1v10.3h-6.4v-5.8c-1.9-0.5-4.7-0.7-6.7-0.7
			c-5.3,0-7.5,2.1-7.5,4.9c0,8.8,22.4,4,22.4,18.8c0,6.4-4.3,11.4-15.5,11.4C227.7,57.9,221.7,56.8,218.1,55.8z"/>
		<path id="XMLID_28_" fill="#047BB7" d="M259.6,46.5V24.3h-6.8V18h6.8V8h7.7v10h11.5v6.3h-11.5V46c0,4.5,2.2,5.8,6.2,5.8
			c2.4,0,4.5-0.5,6-1v5.8c-2.5,0.7-4.9,1.3-8.3,1.3C264.1,57.9,259.6,54.9,259.6,46.5z"/>
		<path id="XMLID_25_" fill="#047BB7" d="M283.2,46.3c0-9.6,8.9-12,17.8-12h7.6v-3c0-5.9-2.3-8.2-9.1-8.2c-4.8,0-9.9,1.2-13.2,2.3
			v-6c3.8-1.3,9.4-2.4,14.7-2.4c10.1,0,15.3,3.9,15.3,13.9v19.8h6.5v6.2h-13.9v-4.7c-2.8,2.7-7.3,5.7-13.3,5.7
			C288.8,57.9,283.2,53.9,283.2,46.3z M308.7,47.1v-7.7h-7.3c-5.6,0-10.4,1.4-10.4,6.6c0,3.5,2.2,6.2,6.8,6.2
			C302.4,52.2,306,49.6,308.7,47.1z"/>
		<path id="XMLID_23_" fill="#047BB7" d="M326.9,37.6c0-13.1,8.1-20.5,20.3-20.5c5.3,0,10.5,1.5,13.7,2.6v12.2h-6.6V24
			c-1.7-0.5-4.1-1-6.4-1c-8.7,0-13,5.7-13,14.3c0,8.7,4.5,14.5,13.2,14.5c4.6,0,9.1-1.7,12.6-3.7v6.3c-3.7,2.2-8.5,3.5-13.7,3.5
			C334.5,57.9,326.9,50.5,326.9,37.6z"/>
	</g>
	<g id="XMLID_39_">
		<path id="XMLID_51_" fill="#233844" d="M0,68.8h6.6V24.2H0V18h13.9v4.9c2.9-3.2,6.9-5.9,12.9-5.9c10.6,0,17,8.6,17,20.3
			c0,11.9-6.7,20.6-18,20.6c-4.9,0-8.5-1.7-11.5-4.2v15.1h7.8V75H0V68.8z M14.4,27.9V48c2.3,2.2,5.4,3.8,9.6,3.8
			c8,0,11.9-6,11.9-14.4c0-7.6-3.3-14.4-11.2-14.4C20.2,23.1,16.9,25.4,14.4,27.9z"/>
		<path id="XMLID_48_" fill="#233844" d="M49.3,46.3c0-9.6,8.9-12,17.8-12h7.6v-3c0-5.9-2.3-8.2-9.1-8.2c-4.8,0-9.9,1.2-13.2,2.3v-6
			c3.8-1.3,9.4-2.4,14.7-2.4c10.1,0,15.3,3.9,15.3,13.9v19.8h6.5v6.2H75v-4.7c-2.8,2.7-7.3,5.7-13.3,5.7
			C54.8,57.9,49.3,53.9,49.3,46.3z M74.7,47.1v-7.7h-7.3c-5.6,0-10.4,1.4-10.4,6.6c0,3.5,2.2,6.2,6.8,6.2
			C68.5,52.2,72.1,49.6,74.7,47.1z"/>
		<path id="XMLID_45_" fill="#233844" d="M91.5,68.8h6.6V24.2h-6.6V18h13.9v4.9c2.9-3.2,6.9-5.9,12.9-5.9c10.6,0,17,8.6,17,20.3
			c0,11.9-6.7,20.6-18,20.6c-4.9,0-8.5-1.7-11.5-4.2v15.1h7.8V75H91.5V68.8z M105.8,27.9V48c2.3,2.2,5.4,3.8,9.6,3.8
			c8,0,11.9-6,11.9-14.4c0-7.6-3.3-14.4-11.2-14.4C111.6,23.1,108.4,25.4,105.8,27.9z"/>
		<path id="XMLID_42_" fill="#233844" d="M141.5,37.6c0-12.1,6.9-20.5,18.5-20.5c12.2,0,17.3,9.5,17.3,19.3c0,1.1,0,2.3-0.2,3.5
			h-27.8c0.7,7.6,5.1,12.1,13.1,12.1c5,0,9.4-1.8,12.8-3.7v6.2c-3.3,1.9-7.8,3.6-13.9,3.6C148.3,57.9,141.5,49.5,141.5,37.6z
			 M149.3,34.1H170c-0.4-5.5-2.8-11.3-9.9-11.3C153.5,22.8,150,27.8,149.3,34.1z"/>
		<path id="XMLID_40_" fill="#233844" d="M182.9,50.8h6.5V24.2h-6.5V18H197v7.6c2.5-4.1,6.7-8.6,13.8-8.6h0.9v7.8h-1.4
			c-6.1,0-10.4,2.4-13.1,4.7v21.2h7.4v6.2h-21.7V50.8z"/>
	</g>
</g>
</svg>
